<?xml version="1.0" encoding="UTF-8" standalone="no"?>
<svg
   xmlns:dc="http://purl.org/dc/elements/1.1/"
   xmlns:cc="http://creativecommons.org/ns#"
   xmlns:rdf="http://www.w3.org/1999/02/22-rdf-syntax-ns#"
   xmlns:svg="http://www.w3.org/2000/svg"
   xmlns="http://www.w3.org/2000/svg"
   xmlns:sodipodi="http://sodipodi.sourceforge.net/DTD/sodipodi-0.dtd"
   xmlns:inkscape="http://www.inkscape.org/namespaces/inkscape"
   enable-background="new 0 0 56.693 56.693"
   height="16"
   id="Layer_1"
   version="1.1"
   viewBox="0 0 16 16"
   width="16"
   xml:space="preserve"
   inkscape:version="0.91 r13725"
   sodipodi:docname="icon-rss.svg"><metadata
     id="metadata9"><rdf:RDF><cc:Work
         rdf:about=""><dc:format>image/svg+xml</dc:format><dc:type
           rdf:resource="http://purl.org/dc/dcmitype/StillImage" /><dc:title></dc:title></cc:Work></rdf:RDF></metadata><defs
     id="defs7" /><sodipodi:namedview
     pagecolor="#d2d2d2"
     bordercolor="#666666"
     borderopacity="1"
     objecttolerance="10"
     gridtolerance="10"
     guidetolerance="10"
     inkscape:pageopacity="0"
     inkscape:pageshadow="2"
     inkscape:window-width="1920"
     inkscape:window-height="1007"
     id="namedview5"
     showgrid="false"
     inkscape:zoom="4.1627714"
     inkscape:cx="-2.6424704"
     inkscape:cy="28.3465"
     inkscape:window-x="1920"
     inkscape:window-y="27"
     inkscape:window-maximized="1"
     inkscape:current-layer="Layer_1" /><path
     d="m 0.0343993,8.5031144 c 1.9899538,0 3.8606389,0.7773358 5.2664657,2.1911996 1.4083985,1.413864 2.1838055,3.297087 2.1838055,5.301828 l 3.0665865,0 c 0,-5.822945 -4.7180232,-10.5599353 -10.5168577,-10.5599353 l 0,3.0669077 z m 0.00482,-5.4365282 C 7.1313625,3.0665862 12.901587,8.8683143 12.901587,16 l 3.066586,0 c 0,-8.8229857 -7.1461525,-16 -15.9289537,-16 l 0,3.0665862 z M 4.2798486,13.857665 c 0,1.172755 -0.9512561,2.124011 -2.1240106,2.124011 -1.1727547,0 -2.1240105,-0.950935 -2.1240105,-2.124011 0,-1.173397 0.9509343,-2.12401 2.123689,-2.12401 1.1727548,0 2.1243321,0.950613 2.1243321,2.12401 z"
     id="path3"
     inkscape:connector-curvature="0"
     style="fill:#ffffff;fill-opacity:1" /></svg>